<?xml version="1.0" encoding="UTF-8" standalone="no"?>
<!DOCTYPE svg PUBLIC "-//W3C//DTD SVG 1.1//EN"
 "http://www.w3.org/Graphics/SVG/1.1/DTD/svg11.dtd">
<!-- Generated by graphviz version 2.30.1 (20201013.1554)
 -->
<!-- Title: %3 Pages: 1 -->
<svg width="829pt" height="476pt"
 viewBox="0.00 0.00 829.00 476.00" xmlns="http://www.w3.org/2000/svg" xmlns:xlink="http://www.w3.org/1999/xlink">
<g id="graph0" class="graph" transform="scale(1 1) rotate(0) translate(4 472)">
<title>%3</title>
<polygon fill="white" stroke="white" points="-4,5 -4,-472 826,-472 826,5 -4,5"/>
<!-- [root] aws_eip.eip (expand) -->
<g id="node1" class="node"><title>[root] aws_eip.eip (expand)</title>
<polygon fill="none" stroke="black" points="368,-180 288,-180 288,-144 368,-144 368,-180"/>
<text text-anchor="middle" x="328" y="-158.3" font-family="Times,serif" font-size="14.00">aws_eip.eip</text>
</g>
<!-- [root] provider[&quot;registry.terraform.io/hashicorp/aws&quot;] -->
<g id="node5" class="node"><title>[root] provider[&quot;registry.terraform.io/hashicorp/aws&quot;]</title>
<polygon fill="none" stroke="black" points="391,-108 140.984,-90 391,-72 641.016,-90 391,-108"/>
<text text-anchor="middle" x="391" y="-86.3" font-family="Times,serif" font-size="14.00">provider[&quot;registry.terraform.io/hashicorp/aws&quot;]</text>
</g>
<!-- [root] aws_eip.eip (expand)&#45;&gt;[root] provider[&quot;registry.terraform.io/hashicorp/aws&quot;] -->
<g id="edge1" class="edge"><title>[root] aws_eip.eip (expand)&#45;&gt;[root] provider[&quot;registry.terraform.io/hashicorp/aws&quot;]</title>
<path fill="none" stroke="black" d="M343.573,-143.697C351.43,-134.967 361.081,-124.244 369.621,-114.754"/>
<polygon fill="black" stroke="black" points="372.382,-116.919 376.47,-107.145 367.179,-112.236 372.382,-116.919"/>
</g>
<!-- [root] aws_eip_association.graph_eip (expand) -->
<g id="node2" class="node"><title>[root] aws_eip_association.graph_eip (expand)</title>
<polygon fill="none" stroke="black" points="478,-324 294,-324 294,-288 478,-288 478,-324"/>
<text text-anchor="middle" x="386" y="-302.3" font-family="Times,serif" font-size="14.00">aws_eip_association.graph_eip</text>
</g>
<!-- [root] aws_eip_association.graph_eip (expand)&#45;&gt;[root] aws_eip.eip (expand) -->
<g id="edge2" class="edge"><title>[root] aws_eip_association.graph_eip (expand)&#45;&gt;[root] aws_eip.eip (expand)</title>
<path fill="none" stroke="black" d="M377.954,-287.929C373.164,-277.598 367.054,-264.12 362,-252 353.379,-231.326 344.365,-207.62 337.786,-189.874"/>
<polygon fill="black" stroke="black" points="340.956,-188.356 334.215,-180.183 334.388,-190.776 340.956,-188.356"/>
</g>
<!-- [root] aws_instance.my&#45;instance (expand) -->
<g id="node3" class="node"><title>[root] aws_instance.my&#45;instance (expand)</title>
<polygon fill="none" stroke="black" points="527,-252 371,-252 371,-216 527,-216 527,-252"/>
<text text-anchor="middle" x="449" y="-230.3" font-family="Times,serif" font-size="14.00">aws_instance.my&#45;instance</text>
</g>
<!-- [root] aws_eip_association.graph_eip (expand)&#45;&gt;[root] aws_instance.my&#45;instance (expand) -->
<g id="edge3" class="edge"><title>[root] aws_eip_association.graph_eip (expand)&#45;&gt;[root] aws_instance.my&#45;instance (expand)</title>
<path fill="none" stroke="black" d="M401.573,-287.697C409.202,-279.22 418.523,-268.864 426.876,-259.583"/>
<polygon fill="black" stroke="black" points="429.518,-261.879 433.606,-252.104 424.315,-257.196 429.518,-261.879"/>
</g>
<!-- [root] data.aws_ami.amazon (expand) -->
<g id="node4" class="node"><title>[root] data.aws_ami.amazon (expand)</title>
<polygon fill="none" stroke="black" points="523.25,-180 386.75,-180 386.75,-144 523.25,-144 523.25,-180"/>
<text text-anchor="middle" x="455" y="-158.3" font-family="Times,serif" font-size="14.00">data.aws_ami.amazon</text>
</g>
<!-- [root] aws_instance.my&#45;instance (expand)&#45;&gt;[root] data.aws_ami.amazon (expand) -->
<g id="edge4" class="edge"><title>[root] aws_instance.my&#45;instance (expand)&#45;&gt;[root] data.aws_ami.amazon (expand)</title>
<path fill="none" stroke="black" d="M450.483,-215.697C451.144,-207.983 451.939,-198.712 452.676,-190.112"/>
<polygon fill="black" stroke="black" points="456.167,-190.367 453.534,-180.104 449.193,-189.769 456.167,-190.367"/>
</g>
<!-- [root] data.aws_ami.amazon (expand)&#45;&gt;[root] provider[&quot;registry.terraform.io/hashicorp/aws&quot;] -->
<g id="edge5" class="edge"><title>[root] data.aws_ami.amazon (expand)&#45;&gt;[root] provider[&quot;registry.terraform.io/hashicorp/aws&quot;]</title>
<path fill="none" stroke="black" d="M439.18,-143.697C431.198,-134.967 421.394,-124.244 412.718,-114.754"/>
<polygon fill="black" stroke="black" points="415.092,-112.163 405.761,-107.145 409.925,-116.887 415.092,-112.163"/>
</g>
<!-- [root] var.region -->
<g id="node6" class="node"><title>[root] var.region</title>
<polygon fill="none" stroke="black" points="420.25,-36 355.75,-36 355.75,-0 426.25,-0 426.25,-30 420.25,-36"/>
<polyline fill="none" stroke="black" points="420.25,-36 420.25,-30 "/>
<polyline fill="none" stroke="black" points="426.25,-30 420.25,-30 "/>
<text text-anchor="middle" x="391" y="-14.3" font-family="Times,serif" font-size="14.00">var.region</text>
</g>
<!-- [root] provider[&quot;registry.terraform.io/hashicorp/aws&quot;]&#45;&gt;[root] var.region -->
<g id="edge8" class="edge"><title>[root] provider[&quot;registry.terraform.io/hashicorp/aws&quot;]&#45;&gt;[root] var.region</title>
<path fill="none" stroke="black" d="M391,-71.6966C391,-63.9827 391,-54.7125 391,-46.1124"/>
<polygon fill="black" stroke="black" points="394.5,-46.1043 391,-36.1043 387.5,-46.1044 394.5,-46.1043"/>
</g>
<!-- [root] meta.count&#45;boundary (EachMode fixup) -->
<g id="node7" class="node"><title>[root] meta.count&#45;boundary (EachMode fixup)</title>
<ellipse fill="none" stroke="black" cx="176" cy="-378" rx="176.202" ry="18"/>
<text text-anchor="middle" x="176" y="-374.3" font-family="Times,serif" font-size="14.00">[root] meta.count&#45;boundary (EachMode fixup)</text>
</g>
<!-- [root] meta.count&#45;boundary (EachMode fixup)&#45;&gt;[root] aws_eip_association.graph_eip (expand) -->
<g id="edge6" class="edge"><title>[root] meta.count&#45;boundary (EachMode fixup)&#45;&gt;[root] aws_eip_association.graph_eip (expand)</title>
<path fill="none" stroke="black" d="M224.971,-360.676C254.846,-350.718 293.28,-337.907 325.106,-327.298"/>
<polygon fill="black" stroke="black" points="326.374,-330.565 334.754,-324.082 324.16,-323.924 326.374,-330.565"/>
</g>
<!-- [root] provider[&quot;registry.terraform.io/hashicorp/aws&quot;] (close) -->
<g id="node8" class="node"><title>[root] provider[&quot;registry.terraform.io/hashicorp/aws&quot;] (close)</title>
<ellipse fill="none" stroke="black" cx="596" cy="-378" rx="225.295" ry="18"/>
<text text-anchor="middle" x="596" y="-374.3" font-family="Times,serif" font-size="14.00">[root] provider[&quot;registry.terraform.io/hashicorp/aws&quot;] (close)</text>
</g>
<!-- [root] provider[&quot;registry.terraform.io/hashicorp/aws&quot;] (close)&#45;&gt;[root] aws_eip_association.graph_eip (expand) -->
<g id="edge7" class="edge"><title>[root] provider[&quot;registry.terraform.io/hashicorp/aws&quot;] (close)&#45;&gt;[root] aws_eip_association.graph_eip (expand)</title>
<path fill="none" stroke="black" d="M546.233,-360.411C516.445,-350.482 478.367,-337.789 446.805,-327.268"/>
<polygon fill="black" stroke="black" points="447.829,-323.92 437.235,-324.078 445.615,-330.561 447.829,-323.92"/>
</g>
<!-- [root] root -->
<g id="node9" class="node"><title>[root] root</title>
<ellipse fill="none" stroke="black" cx="386" cy="-450" rx="47.169" ry="18"/>
<text text-anchor="middle" x="386" y="-446.3" font-family="Times,serif" font-size="14.00">[root] root</text>
</g>
<!-- [root] root&#45;&gt;[root] meta.count&#45;boundary (EachMode fixup) -->
<g id="edge9" class="edge"><title>[root] root&#45;&gt;[root] meta.count&#45;boundary (EachMode fixup)</title>
<path fill="none" stroke="black" d="M351.323,-437.441C319.776,-426.925 272.554,-411.185 235.064,-398.688"/>
<polygon fill="black" stroke="black" points="235.858,-395.264 225.265,-395.422 233.645,-401.904 235.858,-395.264"/>
</g>
<!-- [root] root&#45;&gt;[root] provider[&quot;registry.terraform.io/hashicorp/aws&quot;] (close) -->
<g id="edge10" class="edge"><title>[root] root&#45;&gt;[root] provider[&quot;registry.terraform.io/hashicorp/aws&quot;] (close)</title>
<path fill="none" stroke="black" d="M420.677,-437.441C452.011,-426.996 498.806,-411.398 536.172,-398.943"/>
<polygon fill="black" stroke="black" points="537.566,-402.167 545.946,-395.685 535.352,-395.527 537.566,-402.167"/>
</g>
</g>
</svg>
